<svg xmlns="http://www.w3.org/2000/svg" width="1200" height="800" viewBox="0 0 1200 800" fill="none">
  <rect width="1200" height="800" rx="32" fill="#F7F9FB"/>
  <rect x="70" y="80" width="1060" height="110" rx="22" fill="#16324F"/>
  <rect x="120" y="118" width="520" height="34" rx="17" fill="#E8F0F8"/>
  <circle cx="1030" cy="135" r="30" fill="#D8B46A"/>
  <path d="M1021 135h18M1030 126v18" stroke="#16324F" stroke-width="5" stroke-linecap="round"/>
  <rect x="70" y="230" width="320" height="450" rx="28" fill="#E8F0F8"/>
  <rect x="430" y="230" width="320" height="450" rx="28" fill="#E8F0F8"/>
  <rect x="790" y="230" width="340" height="450" rx="28" fill="#16324F"/>
  <rect x="108" y="272" width="240" height="30" rx="15" fill="#7FB3D5"/>
  <rect x="108" y="328" width="200" height="18" rx="9" fill="#B5C9DE"/>
  <rect x="108" y="360" width="180" height="18" rx="9" fill="#B5C9DE"/>
  <rect x="108" y="392" width="220" height="18" rx="9" fill="#B5C9DE"/>
  <circle cx="250" cy="560" r="74" stroke="#16324F" stroke-width="18"/>
  <path d="M302 612l58 58" stroke="#16324F" stroke-width="18" stroke-linecap="round"/>
  <rect x="468" y="272" width="240" height="30" rx="15" fill="#D8B46A"/>
  <rect x="468" y="328" width="210" height="18" rx="9" fill="#B5C9DE"/>
  <rect x="468" y="360" width="180" height="18" rx="9" fill="#B5C9DE"/>
  <rect x="468" y="392" width="220" height="18" rx="9" fill="#B5C9DE"/>
  <path d="M520 520h130M520 560h110M520 600h150" stroke="#16324F" stroke-width="14" stroke-linecap="round"/>
  <rect x="840" y="280" width="240" height="28" rx="14" fill="#D8B46A"/>
  <rect x="840" y="334" width="170" height="18" rx="9" fill="#7FB3D5"/>
  <rect x="840" y="368" width="210" height="18" rx="9" fill="#7FB3D5"/>
  <rect x="840" y="402" width="190" height="18" rx="9" fill="#7FB3D5"/>
  <g transform="translate(870 485)">
    <circle cx="100" cy="56" r="56" fill="#7FB3D5"/>
    <circle cx="100" cy="56" r="32" fill="#16324F"/>
    <circle cx="100" cy="56" r="10" fill="#D8B46A"/>
    <path d="M100 0v22M100 90v22M44 56H22M178 56h-22M61 17l15 15M139 95l15 15M61 95l15-15M139 17l15 15" stroke="#E8F0F8" stroke-width="8" stroke-linecap="round"/>
  </g>
</svg>
